<svg width="57" height="57" viewBox="0 0 57 57" fill="none" xmlns="http://www.w3.org/2000/svg">
<path d="M21.5525 24.8162H14.605V31.7637H21.5525V24.8162ZM21.5525 35.2375H14.605V42.185H21.5525V35.2375ZM31.9737 24.8162H25.0262V31.7637H31.9737V24.8162ZM31.9737 35.2375H25.0262V42.185H31.9737V35.2375ZM42.395 24.8162H35.4475V31.7637H42.395V24.8162ZM42.395 35.2375H35.4475V42.185H42.395V35.2375ZM52.8162 7.4475H49.3425V14.395H38.9212V7.4475H18.0787V14.395H7.65746V7.4475H4.18371C2.26273 7.4475 0.709961 9.00027 0.709961 10.9212V49.1325C0.709961 51.0535 2.26273 52.6062 4.18371 52.6062H52.8162C54.7372 52.6062 56.29 51.0535 56.29 49.1325V10.9212C56.29 9.00027 54.7372 7.4475 52.8162 7.4475ZM49.3425 45.6587H7.65746V21.3425H49.3425V45.6587ZM14.605 2.21603C14.605 1.27117 13.8338 0.5 12.8889 0.5H12.8577C11.9024 0.5 11.1312 1.27117 11.1312 2.21603V10.9212H14.605V2.21603ZM45.8687 2.21603C45.8687 1.27117 45.0975 0.5 44.1527 0.5H44.1214C43.1661 0.5 42.395 1.27117 42.395 2.21603V10.9212H45.8687V2.21603Z" fill="#5CCFA4"/>
</svg>
